HIERARCHY
ROOT Hips
{
	OFFSET 0.000000 97.167313 0.000000
	CHANNELS 6 Xposition Yposition Zposition Xrotation Yrotation Zrotation
	JOINT Spine
	{
		OFFSET 0.000000 13.784798 0.064400
		CHANNELS 3 Xrotation Yrotation Zrotation
		JOINT Spine1
		{
			OFFSET 0.000000 12.037903 0.404700
			CHANNELS 3 Xrotation Yrotation Zrotation
			JOINT Spine2
			{
				OFFSET 0.000000 17.795601 0.420200
				CHANNELS 3 Xrotation Yrotation Zrotation
				JOINT Neck
				{
					OFFSET 0.000000 39.131302 11.954600
					CHANNELS 3 Xrotation Yrotation Zrotation
					JOINT Head
					{
						OFFSET 0.000000 14.456192 15.627699
						CHANNELS 3 Xrotation Yrotation Zrotation
						JOINT HeadTop_End
						{
							OFFSET 0.000000 15.703506 7.603401
							CHANNELS 3 Xrotation Yrotation Zrotation
							End Site
							{
								OFFSET 0.000000 17.447403 0.000000
							}
						}
					}
				}
				JOINT LeftShoulder
				{
					OFFSET 17.399500 24.608795 1.168800
					CHANNELS 3 Xrotation Yrotation Zrotation
					JOINT LeftArm
					{
						OFFSET 18.980635 5.765305 1.818600
						CHANNELS 3 Xrotation Yrotation Zrotation
						JOINT LeftForeArm
						{
							OFFSET 49.290169 0.000000 0.000000
							CHANNELS 3 Xrotation Yrotation Zrotation
							JOINT LeftHand
							{
								OFFSET 31.562012 0.000000 0.000000
								CHANNELS 3 Xrotation Yrotation Zrotation
								JOINT LeftHandThumb1
								{
									OFFSET 6.133995 -4.388519 7.076070
									CHANNELS 3 Xrotation Yrotation Zrotation
									JOINT LeftHandThumb2
									{
										OFFSET 6.037666 -3.485840 3.485847
										CHANNELS 3 Xrotation Yrotation Zrotation
										JOINT LeftHandThumb3
										{
											OFFSET 6.496506 -3.750763 3.750761
											CHANNELS 3 Xrotation Yrotation Zrotation
											JOINT LeftHandThumb4
											{
												OFFSET 5.616882 -3.242905 3.242910
												CHANNELS 3 Xrotation Yrotation Zrotation
												End Site
												{
													OFFSET -1.254608 7.132141 0.375429
												}
											}
										}
									}
								}
								JOINT LeftHandPinky1
								{
									OFFSET 18.920792 -0.453171 -11.426712
									CHANNELS 3 Xrotation Yrotation Zrotation
									JOINT LeftHandPinky2
									{
										OFFSET 4.919586 0.000000 0.000000
										CHANNELS 3 Xrotation Yrotation Zrotation
										JOINT LeftHandPinky3
										{
											OFFSET 5.233047 0.000000 0.000000
											CHANNELS 3 Xrotation Yrotation Zrotation
											JOINT LeftHandPinky4
											{
												OFFSET 5.571716 0.000000 0.000000
												CHANNELS 3 Xrotation Yrotation Zrotation
												End Site
												{
													OFFSET -3.459808 4.342407 -0.466164
												}
											}
										}
									}
								}
								JOINT LeftHandRing1
								{
									OFFSET 22.726120 -0.094986 -6.500475
									CHANNELS 3 Xrotation Yrotation Zrotation
									JOINT LeftHandRing2
									{
										OFFSET 6.408615 0.000000 0.000000
										CHANNELS 3 Xrotation Yrotation Zrotation
										JOINT LeftHandRing3
										{
											OFFSET 6.150223 0.000000 0.000000
											CHANNELS 3 Xrotation Yrotation Zrotation
											JOINT LeftHandRing4
											{
												OFFSET 6.145386 0.000000 0.000000
												CHANNELS 3 Xrotation Yrotation Zrotation
												End Site
												{
													OFFSET -3.671402 4.923981 -0.202372
												}
											}
										}
									}
								}
								JOINT LeftHandMiddle1
								{
									OFFSET 23.373947 0.000000 0.000001
									CHANNELS 3 Xrotation Yrotation Zrotation
									JOINT LeftHandMiddle2
									{
										OFFSET 6.996567 0.000000 0.000000
										CHANNELS 3 Xrotation Yrotation Zrotation
										JOINT LeftHandMiddle3
										{
											OFFSET 7.015945 0.000000 0.000000
											CHANNELS 3 Xrotation Yrotation Zrotation
											JOINT LeftHandMiddle4
											{
												OFFSET 7.721573 0.000000 0.000000
												CHANNELS 3 Xrotation Yrotation Zrotation
												End Site
												{
													OFFSET -4.651108 6.158463 0.251582
												}
											}
										}
									}
								}
								JOINT LeftHandIndex1
								{
									OFFSET 21.310577 -0.490082 6.209344
									CHANNELS 3 Xrotation Yrotation Zrotation
									JOINT LeftHandIndex2
									{
										OFFSET 7.536453 0.000000 0.000000
										CHANNELS 3 Xrotation Yrotation Zrotation
										JOINT LeftHandIndex3
										{
											OFFSET 7.512344 0.000000 0.000000
											CHANNELS 3 Xrotation Yrotation Zrotation
											JOINT LeftHandIndex4
											{
												OFFSET 10.212402 0.000000 0.000001
												CHANNELS 3 Xrotation Yrotation Zrotation
												End Site
												{
													OFFSET -5.180801 8.690506 1.388433
												}
											}
										}
									}
								}
							}
						}
					}
				}
				JOINT RightShoulder
				{
					OFFSET -17.399500 24.608795 1.168800
					CHANNELS 3 Xrotation Yrotation Zrotation
					JOINT RightArm
					{
						OFFSET -18.980635 5.765305 1.818600
						CHANNELS 3 Xrotation Yrotation Zrotation
						JOINT RightForeArm
						{
							OFFSET -49.290169 0.000000 0.000000
							CHANNELS 3 Xrotation Yrotation Zrotation
							JOINT RightHand
							{
								OFFSET -31.562012 0.000000 0.000000
								CHANNELS 3 Xrotation Yrotation Zrotation
								JOINT RightHandThumb1
								{
									OFFSET -6.133995 -4.388519 7.076070
									CHANNELS 3 Xrotation Yrotation Zrotation
									JOINT RightHandThumb2
									{
										OFFSET -6.037666 -3.485840 3.485847
										CHANNELS 3 Xrotation Yrotation Zrotation
										JOINT RightHandThumb3
										{
											OFFSET -6.496506 -3.750763 3.750761
											CHANNELS 3 Xrotation Yrotation Zrotation
											JOINT RightHandThumb4
											{
												OFFSET -5.616882 -3.242905 3.242910
												CHANNELS 3 Xrotation Yrotation Zrotation
												End Site
												{
													OFFSET 1.254608 7.132141 0.375429
												}
											}
										}
									}
								}
								JOINT RightHandIndex1
								{
									OFFSET -21.310577 -0.490082 6.209344
									CHANNELS 3 Xrotation Yrotation Zrotation
									JOINT RightHandIndex2
									{
										OFFSET -7.536453 0.000000 0.000000
										CHANNELS 3 Xrotation Yrotation Zrotation
										JOINT RightHandIndex3
										{
											OFFSET -7.512344 0.000000 0.000000
											CHANNELS 3 Xrotation Yrotation Zrotation
											JOINT RightHandIndex4
											{
												OFFSET -10.212402 0.000000 0.000001
												CHANNELS 3 Xrotation Yrotation Zrotation
												End Site
												{
													OFFSET 5.180801 8.690506 1.388433
												}
											}
										}
									}
								}
								JOINT RightHandMiddle1
								{
									OFFSET -23.373947 0.000000 0.000001
									CHANNELS 3 Xrotation Yrotation Zrotation
									JOINT RightHandMiddle2
									{
										OFFSET -6.996567 0.000000 0.000000
										CHANNELS 3 Xrotation Yrotation Zrotation
										JOINT RightHandMiddle3
										{
											OFFSET -7.015945 0.000000 0.000000
											CHANNELS 3 Xrotation Yrotation Zrotation
											JOINT RightHandMiddle4
											{
												OFFSET -7.721573 0.000000 0.000000
												CHANNELS 3 Xrotation Yrotation Zrotation
												End Site
												{
													OFFSET 4.651108 6.158463 0.251582
												}
											}
										}
									}
								}
								JOINT RightHandRing1
								{
									OFFSET -22.726120 -0.094986 -6.500475
									CHANNELS 3 Xrotation Yrotation Zrotation
									JOINT RightHandRing2
									{
										OFFSET -6.408615 0.000000 0.000000
										CHANNELS 3 Xrotation Yrotation Zrotation
										JOINT RightHandRing3
										{
											OFFSET -6.150223 0.000000 0.000000
											CHANNELS 3 Xrotation Yrotation Zrotation
											JOINT RightHandRing4
											{
												OFFSET -6.145386 0.000000 0.000000
												CHANNELS 3 Xrotation Yrotation Zrotation
												End Site
												{
													OFFSET 3.671402 4.923981 -0.202372
												}
											}
										}
									}
								}
								JOINT RightHandPinky1
								{
									OFFSET -18.920792 -0.453171 -11.426712
									CHANNELS 3 Xrotation Yrotation Zrotation
									JOINT RightHandPinky2
									{
										OFFSET -4.919586 0.000000 0.000000
										CHANNELS 3 Xrotation Yrotation Zrotation
										JOINT RightHandPinky3
										{
											OFFSET -5.233047 0.000000 0.000000
											CHANNELS 3 Xrotation Yrotation Zrotation
											JOINT RightHandPinky4
											{
												OFFSET -5.571716 0.000000 0.000000
												CHANNELS 3 Xrotation Yrotation Zrotation
												End Site
												{
													OFFSET 3.459808 4.342407 -0.466164
												}
											}
										}
									}
								}
							}
						}
					}
				}
			}
		}
	}
	JOINT LeftUpLeg
	{
		OFFSET 19.899099 -7.885101 -3.429500
		CHANNELS 3 Xrotation Yrotation Zrotation
		JOINT LeftLeg
		{
			OFFSET 1.745560 -36.997807 10.304700
			CHANNELS 3 Xrotation Yrotation Zrotation
			JOINT LeftFoot
			{
				OFFSET -1.745558 -29.803308 -13.615400
				CHANNELS 3 Xrotation Yrotation Zrotation
				JOINT LeftToeBase
				{
					OFFSET 1.181900 -18.539904 15.226099
					CHANNELS 3 Xrotation Yrotation Zrotation
					JOINT LeftToe_End
					{
						OFFSET -0.863701 1.402801 16.534700
						CHANNELS 3 Xrotation Yrotation Zrotation
						End Site
						{
							OFFSET 0.000000 16.616566 0.000000
						}
					}
				}
			}
		}
	}
	JOINT RightUpLeg
	{
		OFFSET -19.899099 -7.885101 -3.429500
		CHANNELS 3 Xrotation Yrotation Zrotation
		JOINT RightLeg
		{
			OFFSET -1.745560 -36.997807 10.304700
			CHANNELS 3 Xrotation Yrotation Zrotation
			JOINT RightFoot
			{
				OFFSET 1.745558 -29.803308 -13.615400
				CHANNELS 3 Xrotation Yrotation Zrotation
				JOINT RightToeBase
				{
					OFFSET -1.181900 -18.539904 15.226099
					CHANNELS 3 Xrotation Yrotation Zrotation
					JOINT RightToe_End
					{
						OFFSET 0.863701 1.402801 16.534700
						CHANNELS 3 Xrotation Yrotation Zrotation
						End Site
						{
							OFFSET 0.000000 16.616566 0.000000
						}
					}
				}
			}
		}
	}
}
MOTION
Frames: 4
Frame Time: 0.033333
-5.999128 85.872665 0.177168 73.489837 -76.867570 74.415423 20.641585 6.100359 -0.328928 5.355527 2.232836 0.316031 5.368176 2.198801 0.238619 2.296309 -1.584137 -1.449061 14.982828 -12.066109 8.015788 -0.000001 0.000000 -0.000000 -13.777060 -39.514810 -8.256551 -15.997888 -3.811926 -79.831511 0.000013 -51.330695 -0.000009 -33.693508 33.293009 35.159457 11.766044 -0.491993 -0.229436 8.158722 8.260056 5.107325 0.368086 8.883338 8.277172 -0.000002 -0.000000 0.000000 6.345773 8.183723 -94.176711 1.594189 4.017919 -43.269692 4.226912 5.621881 -73.857568 -0.000000 0.000001 0.000001 6.040833 8.226270 -96.832118 6.368217 5.828225 -95.079409 7.351784 5.655968 -104.886379 -0.000000 0.000000 0.000005 11.768816 8.320792 -88.935483 6.292139 5.834474 -94.330896 6.495097 5.815645 -96.330393 0.000000 -0.000000 0.000002 7.559773 8.844357 -74.953410 6.976970 5.742103 -101.113287 2.872911 5.038692 -59.359637 -0.000000 0.000001 0.000001 1.006504 15.241191 11.382217 -45.465059 4.206583 75.605140 0.000004 31.046225 0.000009 1.589367 -40.607158 9.582502 -6.901931 8.181170 -4.018439 29.817109 -32.677572 4.608280 -5.504783 -5.510963 -14.718515 0.000001 -0.000004 -0.000002 -4.774922 -1.474911 55.945270 4.358195 -4.647585 86.315061 2.028283 -3.845583 55.604239 -0.000000 -0.000003 0.000001 -2.975210 -2.788147 56.566722 4.607273 -4.656892 89.385381 4.769246 -4.655828 91.380582 -0.000000 -0.000003 -0.000004 -4.876524 0.158667 47.834359 3.203236 -4.424851 71.789905 1.573373 -3.491601 48.503967 -0.000003 0.000000 -0.000007 -1.169839 -3.454739 50.264557 1.243897 -3.170285 42.837960 1.063233 -2.963849 39.462125 0.000002 0.000000 0.000000 -36.998390 2.898217 12.188089 27.975608 -6.162168 1.661496 -3.761803 1.861940 -11.186656 -1.583489 -0.000003 0.000002 -0.000000 -0.000000 0.000000 -34.970869 -2.934776 -16.048995 30.768537 1.636179 -3.272090 -7.504430 -3.243804 15.439159 -1.441694 0.000019 0.000002 -0.000000 0.000001 0.000000 
-5.955084 86.012924 -0.375476 75.019533 -77.107454 75.975213 20.691278 6.203498 -0.474198 5.376810 2.281224 0.285789 5.389630 2.246322 0.206622 2.263167 -1.574402 -1.692771 14.925160 -12.456459 8.096522 0.000000 0.000000 -0.000000 -13.818322 -38.644346 -8.796328 -17.020321 -4.648708 -79.124723 0.000000 -50.415706 -0.000012 -31.555525 34.217868 34.285347 11.766042 -0.492012 -0.229443 8.158716 8.260053 5.107333 0.368085 8.883339 8.277165 -0.000000 -0.000002 0.000000 6.345749 8.183699 -94.176718 1.594185 4.017921 -43.269699 4.226918 5.621896 -73.857561 0.000000 -0.000001 0.000001 6.040837 8.226262 -96.832152 6.368223 5.828232 -95.079402 7.351777 5.655971 -104.886379 -0.000000 0.000001 0.000003 11.768815 8.320775 -88.935470 6.292155 5.834457 -94.330909 6.495090 5.815633 -96.330413 -0.000000 -0.000001 0.000001 7.559806 8.844347 -74.953417 6.977003 5.742078 -101.113287 2.872924 5.038672 -59.359651 -0.000001 0.000002 -0.000003 1.007232 15.499900 11.243474 -46.826141 4.136128 75.615201 0.000010 29.095684 -0.000003 -0.214060 -38.971444 9.058347 -6.901952 8.181189 -4.018450 29.817153 -32.677551 4.608297 -5.504771 -5.510972 -14.718508 0.000002 -0.000001 -0.000003 -4.774934 -1.474910 55.945274 4.358178 -4.647592 86.315081 2.028265 -3.845578 55.604232 -0.000002 -0.000001 0.000001 -2.975223 -2.788139 56.566722 4.607273 -4.656905 89.385367 4.769255 -4.655818 91.380575 0.000002 -0.000001 -0.000009 -4.876527 0.158674 47.834349 3.203233 -4.424857 71.789926 1.573384 -3.491608 48.503957 -0.000000 -0.000000 -0.000003 -1.169832 -3.454740 50.264544 1.243902 -3.170266 42.837960 1.063228 -2.963845 39.462115 -0.000000 -0.000001 0.000000 -36.438868 3.135777 12.752661 27.294739 -6.159176 1.659465 -3.564105 1.933970 -11.593145 -1.545577 0.000002 0.000001 0.000000 -0.000000 0.000000 -34.988177 -2.777246 -15.355203 30.743805 1.559560 -3.362829 -7.389958 -3.136165 14.957279 -1.441689 -0.000002 0.000003 -0.000000 0.000000 -0.000000 
-5.894556 86.184662 -1.007466 77.656280 -77.418029 78.672004 20.804770 6.224678 -0.778658 5.415695 2.318283 0.212234 5.427628 2.283184 0.131134 2.259131 -1.525303 -1.959681 14.790920 -12.641679 8.165159 -0.000002 -0.000000 -0.000000 -13.721346 -37.856948 -9.091461 -18.248840 -5.945952 -78.285770 0.000029 -49.196934 0.000007 -29.651391 35.036039 33.328560 11.766027 -0.491993 -0.229443 8.158703 8.260066 5.107338 0.368087 8.883341 8.277172 0.000001 0.000004 -0.000001 6.345744 8.183733 -94.176677 1.594190 4.017912 -43.269689 4.226920 5.621901 -73.857568 -0.000002 0.000001 -0.000000 6.040837 8.226270 -96.832131 6.368217 5.828229 -95.079437 7.351788 5.655965 -104.886372 -0.000001 0.000000 -0.000000 11.768831 8.320790 -88.935490 6.292177 5.834466 -94.330896 6.495102 5.815615 -96.330386 -0.000000 0.000000 -0.000003 7.559792 8.844360 -74.953417 6.976970 5.742079 -101.113287 2.872922 5.038688 -59.359637 0.000001 0.000000 -0.000001 0.987247 15.700248 11.236141 -48.478255 4.134779 75.599860 -0.000005 26.690877 0.000005 -2.155952 -37.073676 8.550231 -6.901939 8.181160 -4.018438 29.817129 -32.677575 4.608310 -5.504773 -5.510956 -14.718521 0.000004 0.000000 -0.000000 -4.774920 -1.474927 55.945280 4.358175 -4.647600 86.315061 2.028283 -3.845591 55.604222 -0.000000 0.000000 0.000002 -2.975217 -2.788159 56.566729 4.607266 -4.656887 89.385374 4.769249 -4.655821 91.380561 0.000001 -0.000000 -0.000004 -4.876515 0.158648 47.834362 3.203248 -4.424861 71.789912 1.573383 -3.491591 48.503970 -0.000001 0.000001 -0.000003 -1.169851 -3.454731 50.264561 1.243897 -3.170288 42.837966 1.063224 -2.963841 39.462111 -0.000000 -0.000002 -0.000001 -35.715855 3.453683 13.488146 26.479983 -6.097864 1.564812 -3.272849 2.065278 -12.134847 -1.456166 0.000029 -0.000001 0.000000 0.000000 0.000000 -35.085804 -2.590135 -14.507293 30.643087 1.642047 -3.502289 -7.144043 -2.978743 14.359802 -1.455258 0.000025 -0.000001 0.000000 -0.000000 -0.000000 
-5.815166 86.386047 -1.675426 81.863314 -77.622771 82.895568 20.843369 6.146534 -1.170028 5.446768 2.311764 0.102802 5.457055 2.276746 0.023146 2.279859 -1.442012 -2.238474 14.589136 -12.634133 7.983600 -0.000003 0.000000 0.000000 -13.590407 -37.133556 -9.345967 -19.608935 -7.630675 -77.377239 0.000002 -47.671121 -0.000006 -27.790155 35.520132 32.241659 11.766024 -0.491997 -0.229448 8.158743 8.260051 5.107331 0.368090 8.883341 8.277170 0.000003 0.000001 -0.000001 6.345750 8.183712 -94.176691 1.594183 4.017920 -43.269686 4.226915 5.621894 -73.857561 0.000002 -0.000001 -0.000002 6.040804 8.226284 -96.832111 6.368211 5.828246 -95.079402 7.351783 5.655982 -104.886393 0.000001 -0.000001 0.000003 11.768779 8.320778 -88.935477 6.292133 5.834484 -94.330889 6.495118 5.815634 -96.330420 -0.000000 0.000001 0.000001 7.559775 8.844358 -74.953403 6.976977 5.742113 -101.113280 2.872936 5.038689 -59.359637 -0.000002 0.000001 -0.000001 0.993134 15.752160 11.172741 -50.400741 4.190540 75.677205 0.000011 23.807178 -0.000007 -4.112015 -34.709194 8.113828 -6.901946 8.181178 -4.018439 29.817136 -32.677544 4.608299 -5.504772 -5.510971 -14.718510 -0.000002 -0.000000 -0.000003 -4.774928 -1.474900 55.945263 4.358183 -4.647601 86.315054 2.028271 -3.845574 55.604232 -0.000001 -0.000005 -0.000002 -2.975227 -2.788143 56.566722 4.607275 -4.656903 89.385374 4.769245 -4.655834 91.380561 0.000000 0.000001 -0.000004 -4.876531 0.158677 47.834349 3.203240 -4.424882 71.789919 1.573383 -3.491602 48.503967 0.000002 0.000000 -0.000002 -1.169840 -3.454733 50.264544 1.243904 -3.170286 42.837966 1.063236 -2.963830 39.462108 0.000000 -0.000001 -0.000001 -35.003924 3.885252 14.428300 25.632361 -5.880799 1.363733 -3.035196 2.182199 -12.605394 -1.378596 0.000030 -0.000001 0.000000 -0.000000 0.000000 -35.379181 -2.379333 -13.457009 30.328560 1.886174 -3.636195 -6.647620 -2.766477 13.635789 -1.463679 0.000007 -0.000001 -0.000000 0.000000 -0.000000 
